<svg width="244" height="60" viewBox="0 0 244 60" fill="none" xmlns="http://www.w3.org/2000/svg">
<mask id="mask0_4717_9558" style="mask-type:alpha" maskUnits="userSpaceOnUse" x="0" y="0" width="244" height="60">
<rect width="244" height="60" transform="matrix(-1 0 0 1 244 0)" fill="#D9D9D9"/>
</mask>
<g mask="url(#mask0_4717_9558)">
<path d="M20.1617 29.9998L15.1052 35.0581L10 29.9998L15.1034 24.8964L20.1617 29.9998ZM32.5231 17.6384L41.2321 26.3473L46.3373 21.2458L32.5231 7.47668L18.7089 21.2909L23.8142 26.3924L32.5231 17.6384ZM49.9429 24.8964L44.8846 29.9998L49.9879 35.1032L55.0894 29.9998L49.9429 24.8964ZM32.5231 42.3613L23.8142 33.6073L18.7089 38.7106L32.5231 52.5229L46.3373 38.7088L41.2321 33.6073L32.5231 42.3613ZM32.5231 35.06L37.6265 29.9548L32.5231 24.8983L27.4198 29.9998L32.5231 35.0581V35.06ZM86.192 35.5855V35.4992C86.192 32.1996 84.4314 30.5272 81.5729 29.4273C83.3316 28.4607 84.8275 26.8747 84.8275 24.1044V24.018C84.8275 20.1459 81.7043 17.6384 76.6891 17.6384H65.2079V42.3181H76.9538C82.5395 42.3613 86.192 40.0733 86.192 35.5874V35.5855ZM79.4163 25.0297C79.4163 26.8766 77.9204 27.6236 75.501 27.6236H70.4877V22.3889H75.8539C78.1418 22.3889 79.4163 23.3123 79.4163 24.9415V25.0297ZM80.7808 34.8836C80.7808 36.7305 79.3299 37.5676 76.9519 37.5676H70.4877V32.1545H76.7773C79.5495 32.1545 80.7808 33.1681 80.7808 34.8385V34.8836ZM97.5849 42.3613V17.6384H92.1306V42.3181H97.5849V42.3613ZM126.796 42.3613V17.6384H121.428V32.8602L109.858 17.6384H104.843V42.3181H110.211V26.657L122.176 42.3613H126.794H126.796ZM156.883 42.3613L146.284 17.507H141.27L130.668 42.3613H136.255L138.498 36.8187H148.925L151.167 42.3613H156.886H156.883ZM146.986 32.0231H140.431L143.731 24.018L146.986 32.0231ZM182.796 42.3613V17.6384H177.428V32.8602L165.858 17.6384H160.843V42.3181H166.211V26.657L178.176 42.3613H182.794H182.796ZM210.816 38.3578L207.342 34.8836C205.405 36.6423 203.689 37.7853 200.831 37.7853C196.608 37.7853 193.661 34.2661 193.661 30.043V29.9116C193.661 25.6885 196.651 22.2143 200.831 22.2143C203.293 22.2143 205.23 23.2691 207.166 24.9847L210.64 20.9812C208.354 18.7382 205.581 17.1541 200.919 17.1541C193.353 17.1541 188.03 22.9163 188.03 29.9116V29.9998C188.03 37.0815 193.44 42.7122 200.7 42.7122C205.45 42.7573 208.265 41.0849 210.816 38.3578ZM234 42.3613V37.5225H220.582V32.331H232.239V27.4922H220.582V22.4771H233.824V17.6384H215.216V42.3181H234V42.3613Z" fill="#EEF1F3"/>
</g>
</svg>
