<svg width="154" height="60" viewBox="0 0 154 60" fill="none" xmlns="http://www.w3.org/2000/svg">
<mask id="mask0_4717_9541" style="mask-type:alpha" maskUnits="userSpaceOnUse" x="0" y="0" width="154" height="60">
<rect width="154" height="60" fill="#D9D9D9"/>
</mask>
<g mask="url(#mask0_4717_9541)">
<path d="M62.5218 29.611C63.53 29.0386 64.3366 28.3257 64.9247 27.4852C65.5929 26.5352 65.9464 25.3995 65.9355 24.2381C65.9355 21.9978 65.0977 20.2481 63.4468 19.0395C61.8154 17.8426 59.5713 17.2377 56.7742 17.2377H46.6606V43.1929H57.1788C60.1242 43.1929 62.4828 42.5086 64.1883 41.1569C65.9069 39.7935 66.7798 37.885 66.7798 35.4822C66.7798 34.0186 66.3687 32.7606 65.5608 31.7419C64.8362 30.8313 63.8149 30.1158 62.5218 29.611ZM52.1337 21.9159H56.3345C57.6524 21.9159 58.6463 22.1722 59.2929 22.6743C59.9303 23.1687 60.2425 23.8218 60.2425 24.6648C60.2425 25.5104 59.9303 26.1947 59.2929 26.693C58.6463 27.1951 57.6524 27.4501 56.3345 27.4501H52.1337V21.9159ZM60.0422 37.6352C59.3137 38.2194 58.2014 38.5147 56.7378 38.5147H52.1337V32.1634H56.7391C58.2014 32.1634 59.315 32.4497 60.0461 33.0091C60.7707 33.5685 61.122 34.3061 61.122 35.2675C61.122 36.2796 60.7694 37.0537 60.0422 37.6352ZM74.1757 23.784H68.6649V43.1916H74.1744L74.1757 23.784ZM128.596 26.7047C127.714 25.6588 126.602 24.8307 125.347 24.2849C124.064 23.7164 122.622 23.4276 121.062 23.4276C119.149 23.4276 117.424 23.8621 115.932 24.7181C114.457 25.558 113.238 26.784 112.407 28.2645C111.56 29.7606 111.132 31.4935 111.132 33.4176C111.132 35.343 111.548 37.1903 112.368 38.7085C113.169 40.2085 114.389 41.4427 115.88 42.2601C117.385 43.0914 119.153 43.5129 121.136 43.5129C123.569 43.5129 125.633 42.9015 127.276 41.6929C128.857 40.5311 129.943 38.8933 130.537 36.8404H124.989C124.698 37.539 124.287 38.1335 123.698 38.5524C123.002 39.0468 122.103 39.2965 121.025 39.2965C120.091 39.2965 119.29 39.0702 118.645 38.6227C117.998 38.1738 117.504 37.5129 117.179 36.653C116.971 36.088 116.831 35.5001 116.764 34.9019H130.633L130.66 34.7302C130.907 33.1652 130.845 31.6821 130.473 30.3226C130.117 28.9943 129.477 27.7593 128.596 26.7034V26.7047ZM116.852 31.31C116.936 30.9079 117.051 30.513 117.197 30.1288C117.535 29.2571 118.023 28.5884 118.649 28.1409C119.272 27.6921 120.047 27.467 120.953 27.467C122.088 27.467 123.021 27.8352 123.724 28.5598C124.391 29.2493 124.768 30.1912 124.849 31.3087L116.852 31.31ZM74.2902 17.2377H68.5504V21.9159H74.2902V17.2377ZM104.462 25.9865C103.841 25.2282 103.064 24.6116 102.185 24.1782C101.157 23.68 99.954 23.4276 98.6088 23.4276C96.9631 23.4276 95.4865 23.8348 94.2246 24.6336C92.9627 25.4336 91.961 26.5629 91.2519 27.9887C90.5429 29.4119 90.1839 31.0824 90.1839 32.9557C90.1839 34.8291 90.5611 36.4019 91.3079 37.8343C92.0559 39.2718 93.0928 40.4167 94.3898 41.2389C95.6882 42.0624 97.17 42.4813 98.7935 42.4813C100.019 42.4813 101.139 42.2159 102.12 41.6916C102.876 41.2932 103.537 40.7363 104.058 40.0589V42.1716C104.058 43.4817 103.715 44.4873 103.039 45.1573C102.359 45.8273 101.326 46.1656 99.9683 46.1656C98.7974 46.1656 97.8777 45.9002 97.2337 45.3759C96.7068 44.9466 96.2463 44.3846 96.1396 43.1929H90.8265C90.876 44.8607 91.3651 45.9834 92.0572 46.9682C92.8313 48.0701 93.9215 48.9327 95.3005 49.5285C96.6639 50.1165 98.2484 50.4158 100.005 50.4158C102.955 50.4158 105.303 49.6742 106.984 48.2132C108.676 46.7445 109.532 44.6877 109.532 42.1014V23.784H104.463L104.462 25.9865ZM103.493 35.5342C103.173 36.222 102.664 36.8042 102.025 37.2124C101.401 37.6027 100.646 37.8031 99.7849 37.8031C98.5359 37.8031 97.5667 37.3776 96.8187 36.5047C96.072 35.6344 95.6934 34.4401 95.6934 32.9544C95.6934 31.4687 96.0707 30.2745 96.8174 29.4041C97.5576 28.5429 98.5555 28.1058 99.7836 28.1058C101.013 28.1058 102.098 28.5481 102.862 29.4237C103.632 30.307 104.022 31.5065 104.022 32.9883C104.022 33.9497 103.844 34.8044 103.493 35.5329V35.5342ZM144 28.4271V23.7853H140.023V17.2377H134.55V23.7853H131.153V28.4271H134.55V36.0247C134.55 40.2488 135.383 43.3529 140.568 43.2566L143.825 43.1916V38.8425H142.209C139.903 38.8425 140.032 37.4986 140.032 35.0021L140.023 28.4284L144 28.4271ZM88.8452 28.4271V23.7853H84.8682V17.2377H79.3951V23.7853H75.997V28.4271H79.3925V36.0247C79.3925 40.2488 80.2251 43.3529 85.412 43.2566L88.667 43.1916V38.8425H87.0551C84.7498 38.8425 84.8773 37.4986 84.8773 35.0021L84.8682 28.4284L88.8452 28.4271ZM23.7379 21.9159H32.0029L40.4577 30.3161C41.008 30.8625 41.0106 31.7523 40.4629 32.3013L29.6195 43.1994H21.1074L23.682 40.6964L33.1321 31.3061L23.8017 21.9146" fill="#EEF1F3"/>
<path d="M27.1338 31.2836H18.8715L10.4153 22.8834C10.2845 22.7535 10.1805 22.599 10.1094 22.4289C10.0383 22.2588 10.0015 22.0763 10.001 21.8919C10.0005 21.7075 10.0364 21.5248 10.1066 21.3543C10.1768 21.1838 10.2799 21.0288 10.4101 20.8982L21.2535 10.0001H29.7669L27.1936 12.5031L17.7409 21.8934L27.0726 31.2836" fill="#EEF1F3"/>
</g>
</svg>
