<svg width="191" height="60" viewBox="0 0 191 60" fill="none" xmlns="http://www.w3.org/2000/svg">
<mask id="mask0_4717_9546" style="mask-type:alpha" maskUnits="userSpaceOnUse" x="0" y="0" width="191" height="60">
<rect width="191" height="60" fill="#D9D9D9"/>
</mask>
<g mask="url(#mask0_4717_9546)">
<path d="M36.993 35.5539L28.2449 20.3654C26.3357 17.2023 21.6336 17.1738 19.7814 20.5079L10.6056 36.2948C8.89579 39.2015 11.0045 42.8205 14.4525 42.8205H32.8897C36.3378 42.849 38.931 39.0875 36.993 35.5539Z" fill="#EEF1F3"/>
<path fill-rule="evenodd" clip-rule="evenodd" d="M31.792 21.9969L39.6007 35.5544C41.524 39.0613 38.9842 42.7928 35.5751 42.821H45.7655C49.2136 42.8495 51.8068 39.088 49.8689 35.5544L41.1207 20.3659C39.2115 17.2028 34.5095 17.1743 32.6572 20.5084L31.792 21.9969Z" fill="#EEF1F3"/>
<path d="M165.687 24.3351C166.997 23.1124 169.297 22.5302 172.645 22.5302H180.476V18.0762H171.218C169.006 18.0762 167.143 18.3091 165.687 18.7748C164.261 19.2406 163.009 19.9684 161.932 20.9873C160.796 22.0935 159.894 23.4617 159.254 25.092C158.613 26.7513 158.293 28.5562 158.293 30.4485C158.293 32.2534 158.613 34 159.254 35.6012C159.894 37.2023 160.796 38.5996 161.932 39.7058C162.98 40.7247 164.232 41.4525 165.629 41.9183C167.055 42.3841 168.948 42.617 171.218 42.617H180.476V38.2212H172.645C170.869 38.2212 169.646 38.1629 168.948 38.0174C168.22 37.8718 167.55 37.6389 166.997 37.2896C165.891 36.5909 165.047 35.6885 164.494 34.5531C163.97 33.4469 163.708 32.0496 163.708 30.4194C163.708 27.6247 164.377 25.5578 165.687 24.3351Z" fill="white"/>
<path d="M97.5361 42.6754H119.37V38.3669H102.863V32.2244H117.274V28.1488H102.863V22.443H119.37V18.1055H97.5361V42.6754Z" fill="white"/>
<path d="M124.814 18.1055L135.033 30.3904L124.814 42.6754H131.423L139.487 32.9522V27.8577L131.423 18.1055H124.814Z" fill="white"/>
<path d="M149.617 18.1053L141.553 27.8576V32.9521L149.617 42.6752H156.225L145.978 30.3903L156.225 18.1053H149.617Z" fill="white"/>
<path d="M76.1376 30.2156L66.327 18.1053H61.2617V42.6752H66.589V26.2856L75.0895 36.4746H77.1563L85.6568 26.1983V42.6752H90.9841V18.1053H85.9772L76.1376 30.2156Z" fill="white"/>
</g>
</svg>
